<svg xmlns="http://www.w3.org/2000/svg" viewBox="0 0 68.03 61.72"><defs><style>.cls-1{fill:#fff;}</style></defs><g id="Layer_2" data-name="Layer 2"><g id="SJ_developer" data-name="SJ developer"><path class="cls-1" d="M30.13,16.22A13,13,0,0,1,29.6,20,7.91,7.91,0,0,1,28,23a7.1,7.1,0,0,1-2.66,1.91,9.56,9.56,0,0,1-3.76.68,17.69,17.69,0,0,1-1.93-.11,15.22,15.22,0,0,1-2-.34L18,21.73a1,1,0,0,1,.36-.72,1.31,1.31,0,0,1,.88-.28,3.82,3.82,0,0,1,.72.1,5.05,5.05,0,0,0,1,.09,4,4,0,0,0,1.46-.23,2.21,2.21,0,0,0,1-.77,3.65,3.65,0,0,0,.62-1.42,9.38,9.38,0,0,0,.21-2.16V.27h5.8Z"/><path class="cls-1" d="M48.54,5.36A2.06,2.06,0,0,1,48,6a1.19,1.19,0,0,1-.73.21,1.71,1.71,0,0,1-.84-.25l-1-.56a9.55,9.55,0,0,0-1.31-.56,5.41,5.41,0,0,0-1.68-.24A3.63,3.63,0,0,0,40,5.26a2.37,2.37,0,0,0-.8,1.88,1.73,1.73,0,0,0,.48,1.25,3.93,3.93,0,0,0,1.27.86,13.38,13.38,0,0,0,1.78.66c.67.2,1.35.43,2,.67a19.38,19.38,0,0,1,2,.87,6.69,6.69,0,0,1,1.79,1.27,5.85,5.85,0,0,1,1.26,1.88,6.71,6.71,0,0,1,.48,2.67,8.72,8.72,0,0,1-.6,3.24A7.59,7.59,0,0,1,48,23.15a8.05,8.05,0,0,1-2.82,1.76,10.47,10.47,0,0,1-3.8.65A12.24,12.24,0,0,1,39,25.32a14.58,14.58,0,0,1-2.34-.68,13.56,13.56,0,0,1-2.13-1,9.13,9.13,0,0,1-1.73-1.34l1.71-2.71a1.75,1.75,0,0,1,.55-.49,1.39,1.39,0,0,1,.72-.2,1.93,1.93,0,0,1,1,.33l1.19.72a9.81,9.81,0,0,0,1.52.72,5.59,5.59,0,0,0,2,.33,3.85,3.85,0,0,0,2.46-.7,2.65,2.65,0,0,0,.87-2.2,2.1,2.1,0,0,0-.48-1.43,3.79,3.79,0,0,0-1.26-.91,11.14,11.14,0,0,0-1.78-.63c-.66-.19-1.34-.39-2-.61a15,15,0,0,1-2-.83,6.26,6.26,0,0,1-1.78-1.28,6.16,6.16,0,0,1-1.26-2,8,8,0,0,1-.48-3A7.15,7.15,0,0,1,36,2.3,8,8,0,0,1,38.68.63,9.87,9.87,0,0,1,42.33,0a13.73,13.73,0,0,1,2.24.18,12.06,12.06,0,0,1,2.07.53,12.76,12.76,0,0,1,1.83.84A9.14,9.14,0,0,1,50,2.66Z"/><path class="cls-1" d="M12.45,57.26l5.81-8-2.64-3.62Zm19-20.84L28.68,47h7.06l-2.2,8.43h7.9L46.08,49,37,36.42Zm18.47,19h5l-2,6.34H64.14L52.47,45.66ZM30,27.73,20.2,41.19l-4.6-6.33L0,56.33v5.39L15.6,40.26l4.6,6.32,9.68-13.31h8.67l9.48,13,4.4-6.05L68,61.72v-5.4L52.43,34.86l-4.4,6L38.45,27.73"/></g></g></svg>